<svg id="visual" viewBox="0 0 2048 2048" width="2048" height="2048" xmlns="http://www.w3.org/2000/svg" xmlns:xlink="http://www.w3.org/1999/xlink" version="1.1"><rect x="0" y="0" width="2048" height="2048" fill="#0b0033"></rect><g fill="#715df2"><circle r="37" cx="910" cy="1775"></circle><circle r="3" cx="1798" cy="77"></circle><circle r="14" cx="1148" cy="927"></circle><circle r="16" cx="290" cy="749"></circle><circle r="18" cx="1457" cy="1605"></circle><circle r="9" cx="1720" cy="204"></circle><circle r="24" cx="745" cy="631"></circle><circle r="19" cx="495" cy="1047"></circle><circle r="27" cx="1552" cy="1205"></circle><circle r="24" cx="1539" cy="453"></circle><circle r="2" cx="1292" cy="326"></circle><circle r="10" cx="286" cy="645"></circle><circle r="23" cx="956" cy="116"></circle><circle r="19" cx="21" cy="1142"></circle><circle r="30" cx="43" cy="762"></circle><circle r="6" cx="395" cy="1448"></circle><circle r="31" cx="150" cy="1185"></circle><circle r="29" cx="1526" cy="1659"></circle><circle r="21" cx="1835" cy="1836"></circle><circle r="34" cx="1906" cy="1104"></circle><circle r="23" cx="265" cy="1884"></circle><circle r="15" cx="774" cy="1678"></circle><circle r="17" cx="267" cy="916"></circle><circle r="26" cx="498" cy="1531"></circle><circle r="13" cx="1174" cy="14"></circle><circle r="26" cx="1866" cy="122"></circle><circle r="2" cx="930" cy="488"></circle><circle r="12" cx="1815" cy="1400"></circle><circle r="31" cx="2009" cy="1833"></circle><circle r="30" cx="1544" cy="1861"></circle><circle r="27" cx="525" cy="1988"></circle><circle r="27" cx="824" cy="388"></circle><circle r="30" cx="702" cy="1837"></circle><circle r="11" cx="1387" cy="1740"></circle><circle r="7" cx="33" cy="184"></circle><circle r="3" cx="1008" cy="655"></circle><circle r="35" cx="1527" cy="950"></circle><circle r="3" cx="1305" cy="1882"></circle><circle r="31" cx="886" cy="1397"></circle><circle r="7" cx="1721" cy="1961"></circle><circle r="33" cx="1250" cy="654"></circle><circle r="11" cx="52" cy="2023"></circle><circle r="29" cx="262" cy="72"></circle><circle r="32" cx="672" cy="576"></circle><circle r="27" cx="1487" cy="647"></circle><circle r="33" cx="1104" cy="1754"></circle><circle r="35" cx="1991" cy="989"></circle><circle r="27" cx="542" cy="838"></circle><circle r="15" cx="933" cy="1937"></circle><circle r="24" cx="64" cy="545"></circle><circle r="18" cx="1195" cy="1212"></circle><circle r="25" cx="697" cy="425"></circle><circle r="24" cx="542" cy="981"></circle><circle r="21" cx="197" cy="1604"></circle><circle r="22" cx="1664" cy="1798"></circle><circle r="35" cx="613" cy="204"></circle><circle r="19" cx="1098" cy="1576"></circle><circle r="17" cx="1042" cy="910"></circle><circle r="15" cx="642" cy="2008"></circle><circle r="11" cx="1242" cy="1492"></circle><circle r="20" cx="545" cy="1104"></circle><circle r="8" cx="883" cy="1877"></circle><circle r="2" cx="1554" cy="1459"></circle><circle r="8" cx="135" cy="1881"></circle><circle r="8" cx="222" cy="1062"></circle><circle r="6" cx="1013" cy="1068"></circle><circle r="23" cx="1137" cy="195"></circle><circle r="19" cx="2040" cy="1504"></circle><circle r="5" cx="947" cy="1021"></circle><circle r="32" cx="1939" cy="864"></circle><circle r="22" cx="1416" cy="507"></circle><circle r="20" cx="122" cy="799"></circle><circle r="35" cx="40" cy="1864"></circle><circle r="12" cx="1371" cy="50"></circle><circle r="13" cx="782" cy="1803"></circle><circle r="19" cx="226" cy="1736"></circle><circle r="25" cx="1218" cy="977"></circle><circle r="33" cx="1582" cy="120"></circle><circle r="29" cx="1215" cy="1378"></circle><circle r="18" cx="1029" cy="318"></circle><circle r="15" cx="553" cy="1705"></circle><circle r="19" cx="158" cy="1473"></circle><circle r="8" cx="899" cy="912"></circle><circle r="31" cx="1675" cy="765"></circle><circle r="14" cx="1352" cy="214"></circle></g></svg>