<svg id="visual" viewBox="0 0 1440 2048" width="1440" height="2048" xmlns="http://www.w3.org/2000/svg" xmlns:xlink="http://www.w3.org/1999/xlink" version="1.1"><rect x="0" y="0" width="1440" height="2048" fill="#0b0033"></rect><g fill="#715df2"><circle r="88" cx="750" cy="1506"></circle><circle r="44" cx="329" cy="595"></circle><circle r="53" cx="504" cy="1795"></circle><circle r="71" cx="530" cy="461"></circle><circle r="71" cx="580" cy="1416"></circle><circle r="72" cx="1180" cy="2016"></circle><circle r="67" cx="981" cy="723"></circle><circle r="43" cx="1004" cy="1522"></circle><circle r="64" cx="1424" cy="110"></circle><circle r="47" cx="311" cy="67"></circle><circle r="84" cx="1223" cy="1234"></circle><circle r="54" cx="344" cy="1597"></circle><circle r="73" cx="884" cy="292"></circle><circle r="63" cx="1393" cy="630"></circle><circle r="72" cx="1086" cy="455"></circle><circle r="74" cx="585" cy="152"></circle><circle r="73" cx="249" cy="1924"></circle><circle r="69" cx="1359" cy="1568"></circle><circle r="86" cx="1278" cy="276"></circle><circle r="67" cx="1210" cy="713"></circle><circle r="58" cx="251" cy="844"></circle><circle r="77" cx="89" cy="1807"></circle><circle r="60" cx="608" cy="1008"></circle><circle r="48" cx="982" cy="1220"></circle><circle r="64" cx="1215" cy="41"></circle><circle r="83" cx="24" cy="1622"></circle><circle r="69" cx="777" cy="496"></circle><circle r="43" cx="152" cy="1054"></circle><circle r="71" cx="209" cy="441"></circle><circle r="56" cx="206" cy="1293"></circle><circle r="82" cx="1343" cy="930"></circle><circle r="68" cx="629" cy="807"></circle><circle r="76" cx="1214" cy="1418"></circle><circle r="59" cx="390" cy="1374"></circle><circle r="77" cx="1002" cy="955"></circle><circle r="48" cx="359" cy="278"></circle><circle r="46" cx="652" cy="1186"></circle><circle r="47" cx="741" cy="1705"></circle><circle r="65" cx="47" cy="2028"></circle><circle r="75" cx="754" cy="1919"></circle><circle r="53" cx="16" cy="294"></circle></g></svg>