<svg id="visual" viewBox="0 0 1440 2048" width="1440" height="2048" xmlns="http://www.w3.org/2000/svg" xmlns:xlink="http://www.w3.org/1999/xlink" version="1.1"><rect x="0" y="0" width="1440" height="2048" fill="#0B0033"></rect><g fill="#715DF2"><circle r="69" cx="426" cy="1422"></circle><circle r="13" cx="843" cy="1054"></circle><circle r="13" cx="199" cy="1705"></circle><circle r="38" cx="364" cy="1603"></circle><circle r="61" cx="126" cy="164"></circle><circle r="53" cx="346" cy="1068"></circle><circle r="65" cx="574" cy="1926"></circle><circle r="40" cx="52" cy="1202"></circle><circle r="32" cx="1120" cy="1776"></circle><circle r="16" cx="267" cy="1828"></circle><circle r="50" cx="733" cy="58"></circle><circle r="47" cx="832" cy="695"></circle><circle r="44" cx="1279" cy="1703"></circle><circle r="59" cx="604" cy="8"></circle><circle r="38" cx="880" cy="480"></circle><circle r="35" cx="1283" cy="409"></circle><circle r="25" cx="952" cy="257"></circle><circle r="24" cx="894" cy="1941"></circle><circle r="55" cx="1137" cy="703"></circle><circle r="26" cx="1432" cy="1319"></circle><circle r="37" cx="722" cy="886"></circle><circle r="66" cx="981" cy="782"></circle><circle r="51" cx="610" cy="1137"></circle><circle r="58" cx="338" cy="665"></circle><circle r="58" cx="988" cy="1599"></circle><circle r="20" cx="1169" cy="2042"></circle><circle r="54" cx="748" cy="2040"></circle><circle r="19" cx="1107" cy="1133"></circle><circle r="16" cx="65" cy="1050"></circle><circle r="67" cx="51" cy="1593"></circle><circle r="27" cx="760" cy="232"></circle><circle r="21" cx="564" cy="1425"></circle><circle r="47" cx="1341" cy="1075"></circle><circle r="47" cx="1005" cy="1459"></circle><circle r="32" cx="401" cy="43"></circle><circle r="51" cx="160" cy="874"></circle><circle r="25" cx="241" cy="1241"></circle><circle r="28" cx="1371" cy="1564"></circle><circle r="31" cx="1380" cy="632"></circle><circle r="24" cx="507" cy="650"></circle><circle r="62" cx="181" cy="334"></circle><circle r="38" cx="693" cy="1277"></circle><circle r="14" cx="754" cy="573"></circle><circle r="47" cx="331" cy="814"></circle><circle r="67" cx="1159" cy="1278"></circle><circle r="33" cx="1254" cy="1923"></circle><circle r="41" cx="214" cy="735"></circle><circle r="58" cx="500" cy="911"></circle><circle r="42" cx="1132" cy="226"></circle><circle r="67" cx="232" cy="1985"></circle><circle r="51" cx="1226" cy="960"></circle><circle r="23" cx="116" cy="1384"></circle><circle r="16" cx="735" cy="1524"></circle><circle r="29" cx="310" cy="398"></circle><circle r="56" cx="554" cy="1625"></circle><circle r="16" cx="943" cy="83"></circle><circle r="63" cx="837" cy="1699"></circle><circle r="22" cx="1396" cy="261"></circle><circle r="17" cx="1137" cy="60"></circle><circle r="13" cx="847" cy="1353"></circle><circle r="27" cx="84" cy="2042"></circle><circle r="48" cx="757" cy="1868"></circle><circle r="42" cx="1151" cy="1477"></circle><circle r="28" cx="433" cy="323"></circle><circle r="20" cx="1023" cy="1891"></circle><circle r="51" cx="680" cy="421"></circle></g></svg>