<svg xmlns="http://www.w3.org/2000/svg" width="1400" height="600" fill="none" viewBox="0 0 1400 600">
  <g clip-path="url(#a)">
    <path fill="#fff" d="M0 0h1400v600H0z"/>
    <path fill="#060046" d="M0 0h1400v600H0z"/>
    <path fill="#1D157A" fill-opacity=".54" d="M546.807 714c0 198.546-174.385 359.5-389.5 359.5s-389.5-160.954-389.5-359.5 174.385-359.5 389.5-359.5 389.5 160.954 389.5 359.5Z"/>
    <ellipse cx="1441.04" cy="28.991" fill="#1D157A" fill-opacity=".54" rx="412.066" ry="340.489" transform="rotate(14.715 1441.04 28.991)"/>
    <path fill="#1D157A" fill-opacity=".54" d="M596 205c0 26.234-22.162 47.5-49.5 47.5S497 231.234 497 205s22.162-47.5 49.5-47.5S596 178.766 596 205Zm470.44 233.021c0 40.869-34.92 74-77.996 74-43.078 0-78-33.131-78-74s34.922-74 78-74c43.076 0 77.996 33.131 77.996 74Z"/>
  </g>
  <defs>
    <clipPath id="a">
      <path fill="#fff" d="M0 0h1400v600H0z"/>
    </clipPath>
  </defs>
</svg>
