<svg xmlns="http://www.w3.org/2000/svg" width="1920" height="4080" fill="none" viewBox="0 0 1920 4080">
  <g clip-path="url(#a)">
    <path fill="url(#b)" d="M0 0h1920v4080H0z"/>
    <circle cx="298" cy="261" r="11" fill="#D9D9D9" style="mix-blend-mode:soft-light"/>
    <circle cx="176" cy="2013" r="11" fill="#D9D9D9" style="mix-blend-mode:soft-light"/>
    <circle cx="1630" cy="919" r="11" fill="#D9D9D9" style="mix-blend-mode:soft-light"/>
    <circle cx="875" cy="919" r="11" fill="#D9D9D9" style="mix-blend-mode:soft-light"/>
    <circle cx="1545" cy="288" r="11" fill="#D9D9D9" style="mix-blend-mode:soft-light"/>
    <circle cx="206" cy="537" r="45" fill="#D9D9D9" style="mix-blend-mode:soft-light"/>
    <ellipse cx="873" cy="2691.5" fill="#D9D9D9" rx="36" ry="36.5" style="mix-blend-mode:soft-light"/>
    <circle cx="590" cy="3459" r="36" fill="#D9D9D9" style="mix-blend-mode:soft-light"/>
    <circle cx="1483" cy="2038" r="36" fill="#D9D9D9" style="mix-blend-mode:soft-light"/>
    <circle cx="201" cy="2519" r="36" fill="#D9D9D9" style="mix-blend-mode:soft-light"/>
    <circle cx="1596" cy="3496" r="36" fill="#D9D9D9" style="mix-blend-mode:soft-light"/>
    <circle cx="798" cy="1609" r="36" fill="#D9D9D9" style="mix-blend-mode:soft-light"/>
    <circle cx="1311" cy="2866" r="36" fill="#D9D9D9" style="mix-blend-mode:soft-light"/>
    <ellipse cx="960" cy="337.5" fill="#D9D9D9" rx="26" ry="26.5" style="mix-blend-mode:soft-light"/>
    <ellipse cx="666" cy="3184.5" fill="#D9D9D9" rx="26" ry="26.5" style="mix-blend-mode:soft-light"/>
    <ellipse cx="526" cy="2200.5" fill="#D9D9D9" rx="26" ry="26.5" style="mix-blend-mode:soft-light"/>
    <ellipse cx="1387" cy="2272.5" fill="#D9D9D9" rx="26" ry="26.5" style="mix-blend-mode:soft-light"/>
    <ellipse cx="1560" cy="1718.5" fill="#D9D9D9" rx="26" ry="26.5" style="mix-blend-mode:soft-light"/>
    <ellipse cx="161" cy="1246.5" fill="#D9D9D9" rx="26" ry="26.5" style="mix-blend-mode:soft-light"/>
    <ellipse cx="1249" cy="3535.5" fill="#D9D9D9" rx="26" ry="26.5" style="mix-blend-mode:soft-light"/>
    <ellipse cx="578" cy="1408.5" fill="#D9D9D9" rx="26" ry="26.5" style="mix-blend-mode:soft-light"/>
    <ellipse cx="1249" cy="1461.5" fill="#D9D9D9" rx="26" ry="26.5" style="mix-blend-mode:soft-light"/>
    <ellipse cx="552" cy="859.5" fill="#D9D9D9" rx="26" ry="26.5" style="mix-blend-mode:soft-light"/>
    <circle cx="285.5" cy="3361.5" r="34.5" fill="#D9D9D9" style="mix-blend-mode:soft-light"/>
    <circle cx="298" cy="261" r="11" fill="#D9D9D9" style="mix-blend-mode:soft-light"/>
    <circle cx="176" cy="2013" r="11" fill="#D9D9D9" style="mix-blend-mode:soft-light"/>
    <circle cx="875" cy="919" r="11" fill="#D9D9D9" style="mix-blend-mode:soft-light"/>
    <circle cx="1545" cy="288" r="11" fill="#D9D9D9" style="mix-blend-mode:soft-light"/>
    <circle cx="206" cy="537" r="45" fill="#D9D9D9" style="mix-blend-mode:soft-light"/>
    <ellipse cx="873" cy="2691.5" fill="#D9D9D9" rx="36" ry="36.5" style="mix-blend-mode:soft-light"/>
    <circle cx="590" cy="3459" r="36" fill="#D9D9D9" style="mix-blend-mode:soft-light"/>
    <circle cx="1483" cy="2038" r="36" fill="#D9D9D9" style="mix-blend-mode:soft-light"/>
    <circle cx="201" cy="2519" r="36" fill="#D9D9D9" style="mix-blend-mode:soft-light"/>
    <circle cx="1596" cy="3496" r="36" fill="#D9D9D9" style="mix-blend-mode:soft-light"/>
    <circle cx="798" cy="1609" r="36" fill="#D9D9D9" style="mix-blend-mode:soft-light"/>
    <circle cx="1311" cy="2866" r="36" fill="#D9D9D9" style="mix-blend-mode:soft-light"/>
    <ellipse cx="960" cy="337.5" fill="#D9D9D9" rx="26" ry="26.5" style="mix-blend-mode:soft-light"/>
    <ellipse cx="666" cy="3184.5" fill="#D9D9D9" rx="26" ry="26.5" style="mix-blend-mode:soft-light"/>
    <ellipse cx="526" cy="2200.5" fill="#D9D9D9" rx="26" ry="26.5" style="mix-blend-mode:soft-light"/>
    <ellipse cx="1387" cy="2272.5" fill="#D9D9D9" rx="26" ry="26.5" style="mix-blend-mode:soft-light"/>
    <ellipse cx="1560" cy="1718.5" fill="#D9D9D9" rx="26" ry="26.5" style="mix-blend-mode:soft-light"/>
    <ellipse cx="161" cy="1246.5" fill="#D9D9D9" rx="26" ry="26.5" style="mix-blend-mode:soft-light"/>
    <ellipse cx="1249" cy="3535.5" fill="#D9D9D9" rx="26" ry="26.5" style="mix-blend-mode:soft-light"/>
    <ellipse cx="578" cy="1408.5" fill="#D9D9D9" rx="26" ry="26.5" style="mix-blend-mode:soft-light"/>
    <circle cx="1217" cy="2284" r="11" fill="#D9D9D9" style="mix-blend-mode:soft-light"/>
    <circle cx="1095" cy="4036" r="11" fill="#D9D9D9"/>
    <circle cx="1794" cy="2942" r="11" fill="#D9D9D9" style="mix-blend-mode:soft-light"/>
    <circle cx="1125" cy="2560" r="45" fill="#D9D9D9" style="mix-blend-mode:soft-light"/>
    <circle cx="1717" cy="3632" r="36" fill="#D9D9D9" style="mix-blend-mode:soft-light"/>
    <ellipse cx="1879" cy="2360.5" fill="#D9D9D9" rx="26" ry="26.5" style="mix-blend-mode:soft-light"/>
    <ellipse cx="1080" cy="3269.5" fill="#D9D9D9" rx="26" ry="26.5" style="mix-blend-mode:soft-light"/>
    <ellipse cx="1497" cy="3431.5" fill="#D9D9D9" rx="26" ry="26.5" style="mix-blend-mode:soft-light"/>
    <ellipse cx="1471" cy="2882.5" fill="#D9D9D9" rx="26" ry="26.5" style="mix-blend-mode:soft-light"/>
    <ellipse cx="1249" cy="1461.5" fill="#D9D9D9" rx="26" ry="26.5" style="mix-blend-mode:soft-light"/>
    <ellipse cx="552" cy="859.5" fill="#D9D9D9" rx="26" ry="26.5" style="mix-blend-mode:soft-light"/>
    <circle cx="285.5" cy="3361.5" r="34.5" fill="#D9D9D9" style="mix-blend-mode:soft-light"/>
    <circle cx="1302" cy="1680" r="11" fill="#D9D9D9" style="mix-blend-mode:soft-light"/>
    <circle cx="1332" cy="204" r="45" fill="#D9D9D9" style="mix-blend-mode:soft-light"/>
    <circle cx="1716" cy="3126" r="36" fill="#D9D9D9" style="mix-blend-mode:soft-light"/>
    <circle cx="1327" cy="2186" r="36" fill="#D9D9D9" style="mix-blend-mode:soft-light"/>
    <circle cx="1924" cy="1276" r="36" fill="#D9D9D9" style="mix-blend-mode:soft-light"/>
    <ellipse cx="1792" cy="2851.5" fill="#D9D9D9" rx="26" ry="26.5" style="mix-blend-mode:soft-light"/>
    <ellipse cx="1652" cy="1867.5" fill="#D9D9D9" rx="26" ry="26.5" style="mix-blend-mode:soft-light"/>
    <ellipse cx="1287" cy="913.5" fill="#D9D9D9" rx="26" ry="26.5" style="mix-blend-mode:soft-light"/>
    <ellipse cx="1704" cy="1075.5" fill="#D9D9D9" rx="26" ry="26.5" style="mix-blend-mode:soft-light"/>
    <ellipse cx="1678" cy="526.5" fill="#D9D9D9" rx="26" ry="26.5" style="mix-blend-mode:soft-light"/>
    <circle cx="1411.5" cy="3028.5" r="34.5" fill="#D9D9D9" style="mix-blend-mode:soft-light"/>
  </g>
  <defs>
    <linearGradient id="b" x1="1978.5" x2="-783.288" y1="-105.778" y2="357.246" gradientUnits="userSpaceOnUse">
      <stop offset=".048" stop-color="#0B0033"/>
      <stop offset=".991" stop-color="#715DF2"/>
    </linearGradient>
    <clipPath id="a">
      <path fill="#fff" d="M0 0h1920v4080H0z"/>
    </clipPath>
  </defs>
</svg>
